<svg viewBox="0 0 5280 1184"  version="1.1" xmlns="http://www.w3.org/2000/svg">
<g id="qubit_lines">
<path id="qubit_line:0" d="M64,64 L5248,64 " stroke="black"/>
<text dominant-baseline="central" text-anchor="end" font-family="monospace" font-size="12" x="64" y="64">q0</text>
<path id="qubit_line:1" d="M64,128 L5248,128 " stroke="black"/>
<text dominant-baseline="central" text-anchor="end" font-family="monospace" font-size="12" x="64" y="128">q1</text>
<path id="qubit_line:2" d="M64,192 L5248,192 " stroke="black"/>
<text dominant-baseline="central" text-anchor="end" font-family="monospace" font-size="12" x="64" y="192">q2</text>
<path id="qubit_line:3" d="M64,256 L5248,256 " stroke="black"/>
<text dominant-baseline="central" text-anchor="end" font-family="monospace" font-size="12" x="64" y="256">q3</text>
<path id="qubit_line:4" d="M64,320 L5248,320 " stroke="black"/>
<text dominant-baseline="central" text-anchor="end" font-family="monospace" font-size="12" x="64" y="320">q4</text>
<path id="qubit_line:5" d="M64,384 L5248,384 " stroke="black"/>
<text dominant-baseline="central" text-anchor="end" font-family="monospace" font-size="12" x="64" y="384">q5</text>
<path id="qubit_line:6" d="M64,448 L5248,448 " stroke="black"/>
<text dominant-baseline="central" text-anchor="end" font-family="monospace" font-size="12" x="64" y="448">q6</text>
<path id="qubit_line:7" d="M64,512 L5248,512 " stroke="black"/>
<text dominant-baseline="central" text-anchor="end" font-family="monospace" font-size="12" x="64" y="512">q7</text>
<path id="qubit_line:8" d="M64,576 L5248,576 " stroke="black"/>
<text dominant-baseline="central" text-anchor="end" font-family="monospace" font-size="12" x="64" y="576">q8</text>
<path id="qubit_line:9" d="M64,640 L5248,640 " stroke="black"/>
<text dominant-baseline="central" text-anchor="end" font-family="monospace" font-size="12" x="64" y="640">q9</text>
<path id="qubit_line:10" d="M64,704 L5248,704 " stroke="black"/>
<text dominant-baseline="central" text-anchor="end" font-family="monospace" font-size="12" x="64" y="704">q10</text>
<path id="qubit_line:11" d="M64,768 L5248,768 " stroke="black"/>
<text dominant-baseline="central" text-anchor="end" font-family="monospace" font-size="12" x="64" y="768">q11</text>
<path id="qubit_line:12" d="M64,832 L5248,832 " stroke="black"/>
<text dominant-baseline="central" text-anchor="end" font-family="monospace" font-size="12" x="64" y="832">q12</text>
<path id="qubit_line:13" d="M64,896 L5248,896 " stroke="black"/>
<text dominant-baseline="central" text-anchor="end" font-family="monospace" font-size="12" x="64" y="896">q13</text>
<path id="qubit_line:14" d="M64,960 L5248,960 " stroke="black"/>
<text dominant-baseline="central" text-anchor="end" font-family="monospace" font-size="12" x="64" y="960">q14</text>
<path id="qubit_line:15" d="M64,1024 L5248,1024 " stroke="black"/>
<text dominant-baseline="central" text-anchor="end" font-family="monospace" font-size="12" x="64" y="1024">q15</text>
<path id="qubit_line:16" d="M64,1088 L5248,1088 " stroke="black"/>
<text dominant-baseline="central" text-anchor="end" font-family="monospace" font-size="12" x="64" y="1088">q16</text>
</g>
<rect x="80" y="48" width="224" height="32" stroke="black" fill="white"/>
<text dominant-baseline="central" text-anchor="middle" font-family="monospace" font-size="16" x="192" y="64">COORDS(1,1)</text>
<rect x="80" y="112" width="224" height="32" stroke="black" fill="white"/>
<text dominant-baseline="central" text-anchor="middle" font-family="monospace" font-size="16" x="192" y="128">COORDS(3,1)</text>
<rect x="80" y="176" width="224" height="32" stroke="black" fill="white"/>
<text dominant-baseline="central" text-anchor="middle" font-family="monospace" font-size="16" x="192" y="192">COORDS(5,1)</text>
<rect x="80" y="240" width="224" height="32" stroke="black" fill="white"/>
<text dominant-baseline="central" text-anchor="middle" font-family="monospace" font-size="16" x="192" y="256">COORDS(1,3)</text>
<rect x="80" y="304" width="224" height="32" stroke="black" fill="white"/>
<text dominant-baseline="central" text-anchor="middle" font-family="monospace" font-size="16" x="192" y="320">COORDS(3,3)</text>
<rect x="80" y="368" width="224" height="32" stroke="black" fill="white"/>
<text dominant-baseline="central" text-anchor="middle" font-family="monospace" font-size="16" x="192" y="384">COORDS(5,3)</text>
<rect x="80" y="432" width="224" height="32" stroke="black" fill="white"/>
<text dominant-baseline="central" text-anchor="middle" font-family="monospace" font-size="16" x="192" y="448">COORDS(1,5)</text>
<rect x="80" y="496" width="224" height="32" stroke="black" fill="white"/>
<text dominant-baseline="central" text-anchor="middle" font-family="monospace" font-size="16" x="192" y="512">COORDS(3,5)</text>
<rect x="80" y="560" width="224" height="32" stroke="black" fill="white"/>
<text dominant-baseline="central" text-anchor="middle" font-family="monospace" font-size="16" x="192" y="576">COORDS(5,5)</text>
<rect x="80" y="624" width="224" height="32" stroke="black" fill="white"/>
<text dominant-baseline="central" text-anchor="middle" font-family="monospace" font-size="16" x="192" y="640">COORDS(2,0)</text>
<rect x="80" y="688" width="224" height="32" stroke="black" fill="white"/>
<text dominant-baseline="central" text-anchor="middle" font-family="monospace" font-size="16" x="192" y="704">COORDS(2,2)</text>
<rect x="80" y="752" width="224" height="32" stroke="black" fill="white"/>
<text dominant-baseline="central" text-anchor="middle" font-family="monospace" font-size="16" x="192" y="768">COORDS(4,2)</text>
<rect x="80" y="816" width="224" height="32" stroke="black" fill="white"/>
<text dominant-baseline="central" text-anchor="middle" font-family="monospace" font-size="16" x="192" y="832">COORDS(6,2)</text>
<rect x="80" y="880" width="224" height="32" stroke="black" fill="white"/>
<text dominant-baseline="central" text-anchor="middle" font-family="monospace" font-size="16" x="192" y="896">COORDS(0,4)</text>
<rect x="80" y="944" width="224" height="32" stroke="black" fill="white"/>
<text dominant-baseline="central" text-anchor="middle" font-family="monospace" font-size="16" x="192" y="960">COORDS(2,4)</text>
<rect x="80" y="1008" width="224" height="32" stroke="black" fill="white"/>
<text dominant-baseline="central" text-anchor="middle" font-family="monospace" font-size="16" x="192" y="1024">COORDS(4,4)</text>
<rect x="80" y="1072" width="224" height="32" stroke="black" fill="white"/>
<text dominant-baseline="central" text-anchor="middle" font-family="monospace" font-size="16" x="192" y="1088">COORDS(4,6)</text>
<rect x="336" y="48" width="32" height="32" stroke="black" fill="black"/>
<text dominant-baseline="central" text-anchor="middle" font-family="monospace" font-size="30" x="352" y="64" fill="white">R</text>
<rect x="336" y="112" width="32" height="32" stroke="black" fill="black"/>
<text dominant-baseline="central" text-anchor="middle" font-family="monospace" font-size="30" x="352" y="128" fill="white">R</text>
<rect x="336" y="176" width="32" height="32" stroke="black" fill="black"/>
<text dominant-baseline="central" text-anchor="middle" font-family="monospace" font-size="30" x="352" y="192" fill="white">R</text>
<rect x="336" y="240" width="32" height="32" stroke="black" fill="black"/>
<text dominant-baseline="central" text-anchor="middle" font-family="monospace" font-size="30" x="352" y="256" fill="white">R</text>
<rect x="336" y="304" width="32" height="32" stroke="black" fill="black"/>
<text dominant-baseline="central" text-anchor="middle" font-family="monospace" font-size="30" x="352" y="320" fill="white">R</text>
<rect x="336" y="368" width="32" height="32" stroke="black" fill="black"/>
<text dominant-baseline="central" text-anchor="middle" font-family="monospace" font-size="30" x="352" y="384" fill="white">R</text>
<rect x="336" y="432" width="32" height="32" stroke="black" fill="black"/>
<text dominant-baseline="central" text-anchor="middle" font-family="monospace" font-size="30" x="352" y="448" fill="white">R</text>
<rect x="336" y="496" width="32" height="32" stroke="black" fill="black"/>
<text dominant-baseline="central" text-anchor="middle" font-family="monospace" font-size="30" x="352" y="512" fill="white">R</text>
<rect x="336" y="560" width="32" height="32" stroke="black" fill="black"/>
<text dominant-baseline="central" text-anchor="middle" font-family="monospace" font-size="30" x="352" y="576" fill="white">R</text>
<path d="M68,40 L68,32 L380,32 L380,40 " stroke="black" fill="none"/>
<path d="M68,1144 L68,1152 L380,1152 L380,1144 " stroke="black" fill="none"/>
<rect x="400" y="624" width="32" height="32" stroke="black" fill="black"/>
<text dominant-baseline="central" text-anchor="middle" font-family="monospace" font-size="30" x="416" y="640" fill="white">R</text>
<rect x="400" y="688" width="32" height="32" stroke="black" fill="black"/>
<text dominant-baseline="central" text-anchor="middle" font-family="monospace" font-size="30" x="416" y="704" fill="white">R</text>
<rect x="400" y="752" width="32" height="32" stroke="black" fill="black"/>
<text dominant-baseline="central" text-anchor="middle" font-family="monospace" font-size="30" x="416" y="768" fill="white">R</text>
<rect x="400" y="816" width="32" height="32" stroke="black" fill="black"/>
<text dominant-baseline="central" text-anchor="middle" font-family="monospace" font-size="30" x="416" y="832" fill="white">R</text>
<rect x="400" y="880" width="32" height="32" stroke="black" fill="black"/>
<text dominant-baseline="central" text-anchor="middle" font-family="monospace" font-size="30" x="416" y="896" fill="white">R</text>
<rect x="400" y="944" width="32" height="32" stroke="black" fill="black"/>
<text dominant-baseline="central" text-anchor="middle" font-family="monospace" font-size="30" x="416" y="960" fill="white">R</text>
<rect x="400" y="1008" width="32" height="32" stroke="black" fill="black"/>
<text dominant-baseline="central" text-anchor="middle" font-family="monospace" font-size="30" x="416" y="1024" fill="white">R</text>
<rect x="400" y="1072" width="32" height="32" stroke="black" fill="black"/>
<text dominant-baseline="central" text-anchor="middle" font-family="monospace" font-size="30" x="416" y="1088" fill="white">R</text>
<rect x="464" y="624" width="32" height="32" stroke="black" fill="white"/>
<text dominant-baseline="central" text-anchor="middle" font-family="monospace" font-size="30" x="480" y="640">H</text>
<rect x="464" y="752" width="32" height="32" stroke="black" fill="white"/>
<text dominant-baseline="central" text-anchor="middle" font-family="monospace" font-size="30" x="480" y="768">H</text>
<rect x="464" y="944" width="32" height="32" stroke="black" fill="white"/>
<text dominant-baseline="central" text-anchor="middle" font-family="monospace" font-size="30" x="480" y="960">H</text>
<rect x="464" y="1072" width="32" height="32" stroke="black" fill="white"/>
<text dominant-baseline="central" text-anchor="middle" font-family="monospace" font-size="30" x="480" y="1088">H</text>
<path d="M544,192 L544,768 " stroke="black"/>
<circle cx="544" cy="768" r="12" stroke="none" fill="black"/>
<circle cx="544" cy="192" r="12" stroke="black" fill="white"/>
<path d="M532,192 L556,192 M544,180 L544,204 " stroke="black"/>
<path d="M608,320 L608,960 " stroke="black"/>
<circle cx="608" cy="960" r="12" stroke="none" fill="black"/>
<circle cx="608" cy="320" r="12" stroke="black" fill="white"/>
<path d="M596,320 L620,320 M608,308 L608,332 " stroke="black"/>
<path d="M672,576 L672,1088 " stroke="black"/>
<circle cx="672" cy="1088" r="12" stroke="none" fill="black"/>
<circle cx="672" cy="576" r="12" stroke="black" fill="white"/>
<path d="M660,576 L684,576 M672,564 L672,588 " stroke="black"/>
<path d="M736,128 L736,704 " stroke="black"/>
<circle cx="736" cy="128" r="12" stroke="none" fill="black"/>
<circle cx="736" cy="704" r="12" stroke="black" fill="white"/>
<path d="M724,704 L748,704 M736,692 L736,716 " stroke="black"/>
<path d="M800,256 L800,896 " stroke="black"/>
<circle cx="800" cy="256" r="12" stroke="none" fill="black"/>
<circle cx="800" cy="896" r="12" stroke="black" fill="white"/>
<path d="M788,896 L812,896 M800,884 L800,908 " stroke="black"/>
<path d="M864,384 L864,1024 " stroke="black"/>
<circle cx="864" cy="384" r="12" stroke="none" fill="black"/>
<circle cx="864" cy="1024" r="12" stroke="black" fill="white"/>
<path d="M852,1024 L876,1024 M864,1012 L864,1036 " stroke="black"/>
<path d="M516,40 L516,32 L892,32 L892,40 " stroke="black" fill="none"/>
<path d="M516,1144 L516,1152 L892,1152 L892,1144 " stroke="black" fill="none"/>
<path d="M928,128 L928,768 " stroke="black"/>
<circle cx="928" cy="768" r="12" stroke="none" fill="black"/>
<circle cx="928" cy="128" r="12" stroke="black" fill="white"/>
<path d="M916,128 L940,128 M928,116 L928,140 " stroke="black"/>
<path d="M992,256 L992,960 " stroke="black"/>
<circle cx="992" cy="960" r="12" stroke="none" fill="black"/>
<circle cx="992" cy="256" r="12" stroke="black" fill="white"/>
<path d="M980,256 L1004,256 M992,244 L992,268 " stroke="black"/>
<path d="M1056,512 L1056,1088 " stroke="black"/>
<circle cx="1056" cy="1088" r="12" stroke="none" fill="black"/>
<circle cx="1056" cy="512" r="12" stroke="black" fill="white"/>
<path d="M1044,512 L1068,512 M1056,500 L1056,524 " stroke="black"/>
<path d="M1120,320 L1120,704 " stroke="black"/>
<circle cx="1120" cy="320" r="12" stroke="none" fill="black"/>
<circle cx="1120" cy="704" r="12" stroke="black" fill="white"/>
<path d="M1108,704 L1132,704 M1120,692 L1120,716 " stroke="black"/>
<path d="M1184,448 L1184,896 " stroke="black"/>
<circle cx="1184" cy="448" r="12" stroke="none" fill="black"/>
<circle cx="1184" cy="896" r="12" stroke="black" fill="white"/>
<path d="M1172,896 L1196,896 M1184,884 L1184,908 " stroke="black"/>
<path d="M1248,576 L1248,1024 " stroke="black"/>
<circle cx="1248" cy="576" r="12" stroke="none" fill="black"/>
<circle cx="1248" cy="1024" r="12" stroke="black" fill="white"/>
<path d="M1236,1024 L1260,1024 M1248,1012 L1248,1036 " stroke="black"/>
<path d="M900,40 L900,32 L1276,32 L1276,40 " stroke="black" fill="none"/>
<path d="M900,1144 L900,1152 L1276,1152 L1276,1144 " stroke="black" fill="none"/>
<rect x="1296" y="688" width="32" height="32" stroke="black" fill="#800000"/>
<text dominant-baseline="central" text-anchor="middle" font-family="monospace" font-size="8" x="1312" y="704" fill="white">HErase</text>
<text dominant-baseline="hanging" text-anchor="middle" font-family="monospace" font-size="10" stroke="red" x="1312" y="724">0.25</text>
<text text-anchor="middle" font-family="monospace" font-size="8" x="1312" y="684">rec[0]</text>
<rect x="1360" y="688" width="288" height="32" stroke="black" fill="lightgray"/>
<text dominant-baseline="central" text-anchor="middle" font-family="monospace" font-size="16" x="1504" y="704">DETECTOR</text>
<text dominant-baseline="hanging" text-anchor="middle" font-family="monospace" font-size="8" x="1504" y="724">coords=(2,2,0,1)</text>
<text text-anchor="middle" font-family="monospace" font-size="8" x="1504" y="684">D0 = rec[0]</text>
<path d="M1376,128 L1376,640 " stroke="black"/>
<circle cx="1376" cy="640" r="12" stroke="none" fill="black"/>
<circle cx="1376" cy="128" r="12" stroke="black" fill="white"/>
<path d="M1364,128 L1388,128 M1376,116 L1376,140 " stroke="black"/>
<path d="M1696,384 L1696,768 " stroke="black"/>
<circle cx="1696" cy="768" r="12" stroke="none" fill="black"/>
<circle cx="1696" cy="384" r="12" stroke="black" fill="white"/>
<path d="M1684,384 L1708,384 M1696,372 L1696,396 " stroke="black"/>
<path d="M1760,512 L1760,960 " stroke="black"/>
<circle cx="1760" cy="960" r="12" stroke="none" fill="black"/>
<circle cx="1760" cy="512" r="12" stroke="black" fill="white"/>
<path d="M1748,512 L1772,512 M1760,500 L1760,524 " stroke="black"/>
<path d="M1824,64 L1824,704 " stroke="black"/>
<circle cx="1824" cy="64" r="12" stroke="none" fill="black"/>
<circle cx="1824" cy="704" r="12" stroke="black" fill="white"/>
<path d="M1812,704 L1836,704 M1824,692 L1824,716 " stroke="black"/>
<path d="M1888,192 L1888,832 " stroke="black"/>
<circle cx="1888" cy="192" r="12" stroke="none" fill="black"/>
<circle cx="1888" cy="832" r="12" stroke="black" fill="white"/>
<path d="M1876,832 L1900,832 M1888,820 L1888,844 " stroke="black"/>
<path d="M1952,320 L1952,1024 " stroke="black"/>
<circle cx="1952" cy="320" r="12" stroke="none" fill="black"/>
<circle cx="1952" cy="1024" r="12" stroke="black" fill="white"/>
<path d="M1940,1024 L1964,1024 M1952,1012 L1952,1036 " stroke="black"/>
<path d="M1284,40 L1284,32 L1980,32 L1980,40 " stroke="black" fill="none"/>
<path d="M1284,1144 L1284,1152 L1980,1152 L1980,1144 " stroke="black" fill="none"/>
<path d="M2016,64 L2016,640 " stroke="black"/>
<circle cx="2016" cy="640" r="12" stroke="none" fill="black"/>
<circle cx="2016" cy="64" r="12" stroke="black" fill="white"/>
<path d="M2004,64 L2028,64 M2016,52 L2016,76 " stroke="black"/>
<path d="M2080,320 L2080,768 " stroke="black"/>
<circle cx="2080" cy="768" r="12" stroke="none" fill="black"/>
<circle cx="2080" cy="320" r="12" stroke="black" fill="white"/>
<path d="M2068,320 L2092,320 M2080,308 L2080,332 " stroke="black"/>
<path d="M2144,448 L2144,960 " stroke="black"/>
<circle cx="2144" cy="960" r="12" stroke="none" fill="black"/>
<circle cx="2144" cy="448" r="12" stroke="black" fill="white"/>
<path d="M2132,448 L2156,448 M2144,436 L2144,460 " stroke="black"/>
<path d="M2208,256 L2208,704 " stroke="black"/>
<circle cx="2208" cy="256" r="12" stroke="none" fill="black"/>
<circle cx="2208" cy="704" r="12" stroke="black" fill="white"/>
<path d="M2196,704 L2220,704 M2208,692 L2208,716 " stroke="black"/>
<path d="M2272,384 L2272,832 " stroke="black"/>
<circle cx="2272" cy="384" r="12" stroke="none" fill="black"/>
<circle cx="2272" cy="832" r="12" stroke="black" fill="white"/>
<path d="M2260,832 L2284,832 M2272,820 L2272,844 " stroke="black"/>
<path d="M2336,512 L2336,1024 " stroke="black"/>
<circle cx="2336" cy="512" r="12" stroke="none" fill="black"/>
<circle cx="2336" cy="1024" r="12" stroke="black" fill="white"/>
<path d="M2324,1024 L2348,1024 M2336,1012 L2336,1036 " stroke="black"/>
<path d="M1988,40 L1988,32 L2364,32 L2364,40 " stroke="black" fill="none"/>
<path d="M1988,1144 L1988,1152 L2364,1152 L2364,1144 " stroke="black" fill="none"/>
<rect x="2384" y="624" width="32" height="32" stroke="black" fill="white"/>
<text dominant-baseline="central" text-anchor="middle" font-family="monospace" font-size="30" x="2400" y="640">H</text>
<rect x="2384" y="752" width="32" height="32" stroke="black" fill="white"/>
<text dominant-baseline="central" text-anchor="middle" font-family="monospace" font-size="30" x="2400" y="768">H</text>
<rect x="2384" y="944" width="32" height="32" stroke="black" fill="white"/>
<text dominant-baseline="central" text-anchor="middle" font-family="monospace" font-size="30" x="2400" y="960">H</text>
<rect x="2384" y="1072" width="32" height="32" stroke="black" fill="white"/>
<text dominant-baseline="central" text-anchor="middle" font-family="monospace" font-size="30" x="2400" y="1088">H</text>
<rect x="2448" y="624" width="32" height="32" stroke="black" fill="black"/>
<text dominant-baseline="central" text-anchor="middle" font-family="monospace" font-size="24" x="2464" y="640" fill="white">MR</text>
<text text-anchor="middle" font-family="monospace" font-size="8" x="2464" y="620">rec[1]</text>
<rect x="2448" y="688" width="32" height="32" stroke="black" fill="black"/>
<text dominant-baseline="central" text-anchor="middle" font-family="monospace" font-size="24" x="2464" y="704" fill="white">MR</text>
<text text-anchor="middle" font-family="monospace" font-size="8" x="2464" y="684">rec[2]</text>
<rect x="2448" y="752" width="32" height="32" stroke="black" fill="black"/>
<text dominant-baseline="central" text-anchor="middle" font-family="monospace" font-size="24" x="2464" y="768" fill="white">MR</text>
<text text-anchor="middle" font-family="monospace" font-size="8" x="2464" y="748">rec[3]</text>
<rect x="2448" y="816" width="32" height="32" stroke="black" fill="black"/>
<text dominant-baseline="central" text-anchor="middle" font-family="monospace" font-size="24" x="2464" y="832" fill="white">MR</text>
<text text-anchor="middle" font-family="monospace" font-size="8" x="2464" y="812">rec[4]</text>
<rect x="2448" y="880" width="32" height="32" stroke="black" fill="black"/>
<text dominant-baseline="central" text-anchor="middle" font-family="monospace" font-size="24" x="2464" y="896" fill="white">MR</text>
<text text-anchor="middle" font-family="monospace" font-size="8" x="2464" y="876">rec[5]</text>
<rect x="2448" y="944" width="32" height="32" stroke="black" fill="black"/>
<text dominant-baseline="central" text-anchor="middle" font-family="monospace" font-size="24" x="2464" y="960" fill="white">MR</text>
<text text-anchor="middle" font-family="monospace" font-size="8" x="2464" y="940">rec[6]</text>
<rect x="2448" y="1008" width="32" height="32" stroke="black" fill="black"/>
<text dominant-baseline="central" text-anchor="middle" font-family="monospace" font-size="24" x="2464" y="1024" fill="white">MR</text>
<text text-anchor="middle" font-family="monospace" font-size="8" x="2464" y="1004">rec[7]</text>
<rect x="2448" y="1072" width="32" height="32" stroke="black" fill="black"/>
<text dominant-baseline="central" text-anchor="middle" font-family="monospace" font-size="24" x="2464" y="1088" fill="white">MR</text>
<text text-anchor="middle" font-family="monospace" font-size="8" x="2464" y="1068">rec[8]</text>
<rect x="2512" y="688" width="224" height="32" stroke="black" fill="lightgray"/>
<text dominant-baseline="central" text-anchor="middle" font-family="monospace" font-size="16" x="2624" y="704">DETECTOR</text>
<text dominant-baseline="hanging" text-anchor="middle" font-family="monospace" font-size="8" x="2624" y="724">coords=(2,2,0)</text>
<text text-anchor="middle" font-family="monospace" font-size="8" x="2624" y="684">D1 = rec[2]</text>
<rect x="2512" y="816" width="224" height="32" stroke="black" fill="lightgray"/>
<text dominant-baseline="central" text-anchor="middle" font-family="monospace" font-size="16" x="2624" y="832">DETECTOR</text>
<text dominant-baseline="hanging" text-anchor="middle" font-family="monospace" font-size="8" x="2624" y="852">coords=(6,2,0)</text>
<text text-anchor="middle" font-family="monospace" font-size="8" x="2624" y="812">D2 = rec[4]</text>
<rect x="2512" y="880" width="224" height="32" stroke="black" fill="lightgray"/>
<text dominant-baseline="central" text-anchor="middle" font-family="monospace" font-size="16" x="2624" y="896">DETECTOR</text>
<text dominant-baseline="hanging" text-anchor="middle" font-family="monospace" font-size="8" x="2624" y="916">coords=(0,4,0)</text>
<text text-anchor="middle" font-family="monospace" font-size="8" x="2624" y="876">D3 = rec[5]</text>
<rect x="2512" y="1008" width="224" height="32" stroke="black" fill="lightgray"/>
<text dominant-baseline="central" text-anchor="middle" font-family="monospace" font-size="16" x="2624" y="1024">DETECTOR</text>
<text dominant-baseline="hanging" text-anchor="middle" font-family="monospace" font-size="8" x="2624" y="1044">coords=(4,4,0)</text>
<text text-anchor="middle" font-family="monospace" font-size="8" x="2624" y="1004">D4 = rec[7]</text>
<rect x="2512" y="624" width="32" height="32" stroke="black" fill="black"/>
<text dominant-baseline="central" text-anchor="middle" font-family="monospace" font-size="30" x="2528" y="640" fill="white">R</text>
<rect x="2768" y="688" width="32" height="32" stroke="black" fill="black"/>
<text dominant-baseline="central" text-anchor="middle" font-family="monospace" font-size="30" x="2784" y="704" fill="white">R</text>
<rect x="2768" y="752" width="32" height="32" stroke="black" fill="black"/>
<text dominant-baseline="central" text-anchor="middle" font-family="monospace" font-size="30" x="2784" y="768" fill="white">R</text>
<rect x="2768" y="816" width="32" height="32" stroke="black" fill="black"/>
<text dominant-baseline="central" text-anchor="middle" font-family="monospace" font-size="30" x="2784" y="832" fill="white">R</text>
<rect x="2768" y="880" width="32" height="32" stroke="black" fill="black"/>
<text dominant-baseline="central" text-anchor="middle" font-family="monospace" font-size="30" x="2784" y="896" fill="white">R</text>
<rect x="2768" y="944" width="32" height="32" stroke="black" fill="black"/>
<text dominant-baseline="central" text-anchor="middle" font-family="monospace" font-size="30" x="2784" y="960" fill="white">R</text>
<rect x="2768" y="1008" width="32" height="32" stroke="black" fill="black"/>
<text dominant-baseline="central" text-anchor="middle" font-family="monospace" font-size="30" x="2784" y="1024" fill="white">R</text>
<rect x="2768" y="1072" width="32" height="32" stroke="black" fill="black"/>
<text dominant-baseline="central" text-anchor="middle" font-family="monospace" font-size="30" x="2784" y="1088" fill="white">R</text>
<path d="M2436,40 L2436,32 L2812,32 L2812,40 " stroke="black" fill="none"/>
<path d="M2436,1144 L2436,1152 L2812,1152 L2812,1144 " stroke="black" fill="none"/>
<rect x="2832" y="624" width="32" height="32" stroke="black" fill="white"/>
<text dominant-baseline="central" text-anchor="middle" font-family="monospace" font-size="30" x="2848" y="640">H</text>
<rect x="2832" y="752" width="32" height="32" stroke="black" fill="white"/>
<text dominant-baseline="central" text-anchor="middle" font-family="monospace" font-size="30" x="2848" y="768">H</text>
<rect x="2832" y="944" width="32" height="32" stroke="black" fill="white"/>
<text dominant-baseline="central" text-anchor="middle" font-family="monospace" font-size="30" x="2848" y="960">H</text>
<rect x="2832" y="1072" width="32" height="32" stroke="black" fill="white"/>
<text dominant-baseline="central" text-anchor="middle" font-family="monospace" font-size="30" x="2848" y="1088">H</text>
<path d="M2912,192 L2912,768 " stroke="black"/>
<circle cx="2912" cy="768" r="12" stroke="none" fill="black"/>
<circle cx="2912" cy="192" r="12" stroke="black" fill="white"/>
<path d="M2900,192 L2924,192 M2912,180 L2912,204 " stroke="black"/>
<path d="M2976,320 L2976,960 " stroke="black"/>
<circle cx="2976" cy="960" r="12" stroke="none" fill="black"/>
<circle cx="2976" cy="320" r="12" stroke="black" fill="white"/>
<path d="M2964,320 L2988,320 M2976,308 L2976,332 " stroke="black"/>
<path d="M3040,576 L3040,1088 " stroke="black"/>
<circle cx="3040" cy="1088" r="12" stroke="none" fill="black"/>
<circle cx="3040" cy="576" r="12" stroke="black" fill="white"/>
<path d="M3028,576 L3052,576 M3040,564 L3040,588 " stroke="black"/>
<path d="M3104,128 L3104,704 " stroke="black"/>
<circle cx="3104" cy="128" r="12" stroke="none" fill="black"/>
<circle cx="3104" cy="704" r="12" stroke="black" fill="white"/>
<path d="M3092,704 L3116,704 M3104,692 L3104,716 " stroke="black"/>
<path d="M3168,256 L3168,896 " stroke="black"/>
<circle cx="3168" cy="256" r="12" stroke="none" fill="black"/>
<circle cx="3168" cy="896" r="12" stroke="black" fill="white"/>
<path d="M3156,896 L3180,896 M3168,884 L3168,908 " stroke="black"/>
<path d="M3232,384 L3232,1024 " stroke="black"/>
<circle cx="3232" cy="384" r="12" stroke="none" fill="black"/>
<circle cx="3232" cy="1024" r="12" stroke="black" fill="white"/>
<path d="M3220,1024 L3244,1024 M3232,1012 L3232,1036 " stroke="black"/>
<path d="M2884,40 L2884,32 L3260,32 L3260,40 " stroke="black" fill="none"/>
<path d="M2884,1144 L2884,1152 L3260,1152 L3260,1144 " stroke="black" fill="none"/>
<path d="M3296,128 L3296,768 " stroke="black"/>
<circle cx="3296" cy="768" r="12" stroke="none" fill="black"/>
<circle cx="3296" cy="128" r="12" stroke="black" fill="white"/>
<path d="M3284,128 L3308,128 M3296,116 L3296,140 " stroke="black"/>
<path d="M3360,256 L3360,960 " stroke="black"/>
<circle cx="3360" cy="960" r="12" stroke="none" fill="black"/>
<circle cx="3360" cy="256" r="12" stroke="black" fill="white"/>
<path d="M3348,256 L3372,256 M3360,244 L3360,268 " stroke="black"/>
<path d="M3424,512 L3424,1088 " stroke="black"/>
<circle cx="3424" cy="1088" r="12" stroke="none" fill="black"/>
<circle cx="3424" cy="512" r="12" stroke="black" fill="white"/>
<path d="M3412,512 L3436,512 M3424,500 L3424,524 " stroke="black"/>
<path d="M3488,320 L3488,704 " stroke="black"/>
<circle cx="3488" cy="320" r="12" stroke="none" fill="black"/>
<circle cx="3488" cy="704" r="12" stroke="black" fill="white"/>
<path d="M3476,704 L3500,704 M3488,692 L3488,716 " stroke="black"/>
<path d="M3552,448 L3552,896 " stroke="black"/>
<circle cx="3552" cy="448" r="12" stroke="none" fill="black"/>
<circle cx="3552" cy="896" r="12" stroke="black" fill="white"/>
<path d="M3540,896 L3564,896 M3552,884 L3552,908 " stroke="black"/>
<path d="M3616,576 L3616,1024 " stroke="black"/>
<circle cx="3616" cy="576" r="12" stroke="none" fill="black"/>
<circle cx="3616" cy="1024" r="12" stroke="black" fill="white"/>
<path d="M3604,1024 L3628,1024 M3616,1012 L3616,1036 " stroke="black"/>
<path d="M3268,40 L3268,32 L3644,32 L3644,40 " stroke="black" fill="none"/>
<path d="M3268,1144 L3268,1152 L3644,1152 L3644,1144 " stroke="black" fill="none"/>
<path d="M3680,128 L3680,640 " stroke="black"/>
<circle cx="3680" cy="640" r="12" stroke="none" fill="black"/>
<circle cx="3680" cy="128" r="12" stroke="black" fill="white"/>
<path d="M3668,128 L3692,128 M3680,116 L3680,140 " stroke="black"/>
<path d="M3744,384 L3744,768 " stroke="black"/>
<circle cx="3744" cy="768" r="12" stroke="none" fill="black"/>
<circle cx="3744" cy="384" r="12" stroke="black" fill="white"/>
<path d="M3732,384 L3756,384 M3744,372 L3744,396 " stroke="black"/>
<path d="M3808,512 L3808,960 " stroke="black"/>
<circle cx="3808" cy="960" r="12" stroke="none" fill="black"/>
<circle cx="3808" cy="512" r="12" stroke="black" fill="white"/>
<path d="M3796,512 L3820,512 M3808,500 L3808,524 " stroke="black"/>
<path d="M3872,64 L3872,704 " stroke="black"/>
<circle cx="3872" cy="64" r="12" stroke="none" fill="black"/>
<circle cx="3872" cy="704" r="12" stroke="black" fill="white"/>
<path d="M3860,704 L3884,704 M3872,692 L3872,716 " stroke="black"/>
<path d="M3936,192 L3936,832 " stroke="black"/>
<circle cx="3936" cy="192" r="12" stroke="none" fill="black"/>
<circle cx="3936" cy="832" r="12" stroke="black" fill="white"/>
<path d="M3924,832 L3948,832 M3936,820 L3936,844 " stroke="black"/>
<path d="M4000,320 L4000,1024 " stroke="black"/>
<circle cx="4000" cy="320" r="12" stroke="none" fill="black"/>
<circle cx="4000" cy="1024" r="12" stroke="black" fill="white"/>
<path d="M3988,1024 L4012,1024 M4000,1012 L4000,1036 " stroke="black"/>
<path d="M3652,40 L3652,32 L4028,32 L4028,40 " stroke="black" fill="none"/>
<path d="M3652,1144 L3652,1152 L4028,1152 L4028,1144 " stroke="black" fill="none"/>
<path d="M4064,64 L4064,640 " stroke="black"/>
<circle cx="4064" cy="640" r="12" stroke="none" fill="black"/>
<circle cx="4064" cy="64" r="12" stroke="black" fill="white"/>
<path d="M4052,64 L4076,64 M4064,52 L4064,76 " stroke="black"/>
<path d="M4128,320 L4128,768 " stroke="black"/>
<circle cx="4128" cy="768" r="12" stroke="none" fill="black"/>
<circle cx="4128" cy="320" r="12" stroke="black" fill="white"/>
<path d="M4116,320 L4140,320 M4128,308 L4128,332 " stroke="black"/>
<path d="M4192,448 L4192,960 " stroke="black"/>
<circle cx="4192" cy="960" r="12" stroke="none" fill="black"/>
<circle cx="4192" cy="448" r="12" stroke="black" fill="white"/>
<path d="M4180,448 L4204,448 M4192,436 L4192,460 " stroke="black"/>
<path d="M4256,256 L4256,704 " stroke="black"/>
<circle cx="4256" cy="256" r="12" stroke="none" fill="black"/>
<circle cx="4256" cy="704" r="12" stroke="black" fill="white"/>
<path d="M4244,704 L4268,704 M4256,692 L4256,716 " stroke="black"/>
<path d="M4320,384 L4320,832 " stroke="black"/>
<circle cx="4320" cy="384" r="12" stroke="none" fill="black"/>
<circle cx="4320" cy="832" r="12" stroke="black" fill="white"/>
<path d="M4308,832 L4332,832 M4320,820 L4320,844 " stroke="black"/>
<path d="M4384,512 L4384,1024 " stroke="black"/>
<circle cx="4384" cy="512" r="12" stroke="none" fill="black"/>
<circle cx="4384" cy="1024" r="12" stroke="black" fill="white"/>
<path d="M4372,1024 L4396,1024 M4384,1012 L4384,1036 " stroke="black"/>
<path d="M4036,40 L4036,32 L4412,32 L4412,40 " stroke="black" fill="none"/>
<path d="M4036,1144 L4036,1152 L4412,1152 L4412,1144 " stroke="black" fill="none"/>
<rect x="4432" y="624" width="32" height="32" stroke="black" fill="white"/>
<text dominant-baseline="central" text-anchor="middle" font-family="monospace" font-size="30" x="4448" y="640">H</text>
<rect x="4432" y="752" width="32" height="32" stroke="black" fill="white"/>
<text dominant-baseline="central" text-anchor="middle" font-family="monospace" font-size="30" x="4448" y="768">H</text>
<rect x="4432" y="944" width="32" height="32" stroke="black" fill="white"/>
<text dominant-baseline="central" text-anchor="middle" font-family="monospace" font-size="30" x="4448" y="960">H</text>
<rect x="4432" y="1072" width="32" height="32" stroke="black" fill="white"/>
<text dominant-baseline="central" text-anchor="middle" font-family="monospace" font-size="30" x="4448" y="1088">H</text>
<rect x="4496" y="624" width="32" height="32" stroke="black" fill="black"/>
<text dominant-baseline="central" text-anchor="middle" font-family="monospace" font-size="24" x="4512" y="640" fill="white">MR</text>
<text text-anchor="middle" font-family="monospace" font-size="8" x="4512" y="620">rec[9]</text>
<rect x="4496" y="688" width="32" height="32" stroke="black" fill="black"/>
<text dominant-baseline="central" text-anchor="middle" font-family="monospace" font-size="24" x="4512" y="704" fill="white">MR</text>
<text text-anchor="middle" font-family="monospace" font-size="8" x="4512" y="684">rec[10]</text>
<rect x="4496" y="752" width="32" height="32" stroke="black" fill="black"/>
<text dominant-baseline="central" text-anchor="middle" font-family="monospace" font-size="24" x="4512" y="768" fill="white">MR</text>
<text text-anchor="middle" font-family="monospace" font-size="8" x="4512" y="748">rec[11]</text>
<rect x="4496" y="816" width="32" height="32" stroke="black" fill="black"/>
<text dominant-baseline="central" text-anchor="middle" font-family="monospace" font-size="24" x="4512" y="832" fill="white">MR</text>
<text text-anchor="middle" font-family="monospace" font-size="8" x="4512" y="812">rec[12]</text>
<rect x="4496" y="880" width="32" height="32" stroke="black" fill="black"/>
<text dominant-baseline="central" text-anchor="middle" font-family="monospace" font-size="24" x="4512" y="896" fill="white">MR</text>
<text text-anchor="middle" font-family="monospace" font-size="8" x="4512" y="876">rec[13]</text>
<rect x="4496" y="944" width="32" height="32" stroke="black" fill="black"/>
<text dominant-baseline="central" text-anchor="middle" font-family="monospace" font-size="24" x="4512" y="960" fill="white">MR</text>
<text text-anchor="middle" font-family="monospace" font-size="8" x="4512" y="940">rec[14]</text>
<rect x="4496" y="1008" width="32" height="32" stroke="black" fill="black"/>
<text dominant-baseline="central" text-anchor="middle" font-family="monospace" font-size="24" x="4512" y="1024" fill="white">MR</text>
<text text-anchor="middle" font-family="monospace" font-size="8" x="4512" y="1004">rec[15]</text>
<rect x="4496" y="1072" width="32" height="32" stroke="black" fill="black"/>
<text dominant-baseline="central" text-anchor="middle" font-family="monospace" font-size="24" x="4512" y="1088" fill="white">MR</text>
<text text-anchor="middle" font-family="monospace" font-size="8" x="4512" y="1068">rec[16]</text>
<rect x="4560" y="624" width="224" height="32" stroke="black" fill="lightgray"/>
<text dominant-baseline="central" text-anchor="middle" font-family="monospace" font-size="16" x="4672" y="640">DETECTOR</text>
<text dominant-baseline="hanging" text-anchor="middle" font-family="monospace" font-size="8" x="4672" y="660">coords=(2,0,1)</text>
<text text-anchor="middle" font-family="monospace" font-size="8" x="4672" y="620">D5 = rec[9]*rec[1]</text>
<rect x="4560" y="688" width="224" height="32" stroke="black" fill="lightgray"/>
<text dominant-baseline="central" text-anchor="middle" font-family="monospace" font-size="16" x="4672" y="704">DETECTOR</text>
<text dominant-baseline="hanging" text-anchor="middle" font-family="monospace" font-size="8" x="4672" y="724">coords=(2,2,1)</text>
<text text-anchor="middle" font-family="monospace" font-size="8" x="4672" y="684">D6 = rec[10]*rec[2]</text>
<rect x="4560" y="752" width="224" height="32" stroke="black" fill="lightgray"/>
<text dominant-baseline="central" text-anchor="middle" font-family="monospace" font-size="16" x="4672" y="768">DETECTOR</text>
<text dominant-baseline="hanging" text-anchor="middle" font-family="monospace" font-size="8" x="4672" y="788">coords=(4,2,1)</text>
<text text-anchor="middle" font-family="monospace" font-size="8" x="4672" y="748">D7 = rec[11]*rec[3]</text>
<rect x="4560" y="816" width="224" height="32" stroke="black" fill="lightgray"/>
<text dominant-baseline="central" text-anchor="middle" font-family="monospace" font-size="16" x="4672" y="832">DETECTOR</text>
<text dominant-baseline="hanging" text-anchor="middle" font-family="monospace" font-size="8" x="4672" y="852">coords=(6,2,1)</text>
<text text-anchor="middle" font-family="monospace" font-size="8" x="4672" y="812">D8 = rec[12]*rec[4]</text>
<rect x="4560" y="880" width="224" height="32" stroke="black" fill="lightgray"/>
<text dominant-baseline="central" text-anchor="middle" font-family="monospace" font-size="16" x="4672" y="896">DETECTOR</text>
<text dominant-baseline="hanging" text-anchor="middle" font-family="monospace" font-size="8" x="4672" y="916">coords=(0,4,1)</text>
<text text-anchor="middle" font-family="monospace" font-size="8" x="4672" y="876">D9 = rec[13]*rec[5]</text>
<rect x="4560" y="944" width="224" height="32" stroke="black" fill="lightgray"/>
<text dominant-baseline="central" text-anchor="middle" font-family="monospace" font-size="16" x="4672" y="960">DETECTOR</text>
<text dominant-baseline="hanging" text-anchor="middle" font-family="monospace" font-size="8" x="4672" y="980">coords=(2,4,1)</text>
<text text-anchor="middle" font-family="monospace" font-size="8" x="4672" y="940">D10 = rec[14]*rec[6]</text>
<rect x="4560" y="1008" width="224" height="32" stroke="black" fill="lightgray"/>
<text dominant-baseline="central" text-anchor="middle" font-family="monospace" font-size="16" x="4672" y="1024">DETECTOR</text>
<text dominant-baseline="hanging" text-anchor="middle" font-family="monospace" font-size="8" x="4672" y="1044">coords=(4,4,1)</text>
<text text-anchor="middle" font-family="monospace" font-size="8" x="4672" y="1004">D11 = rec[15]*rec[7]</text>
<rect x="4560" y="1072" width="224" height="32" stroke="black" fill="lightgray"/>
<text dominant-baseline="central" text-anchor="middle" font-family="monospace" font-size="16" x="4672" y="1088">DETECTOR</text>
<text dominant-baseline="hanging" text-anchor="middle" font-family="monospace" font-size="8" x="4672" y="1108">coords=(4,6,1)</text>
<text text-anchor="middle" font-family="monospace" font-size="8" x="4672" y="1068">D12 = rec[16]*rec[8]</text>
<rect x="4560" y="48" width="32" height="32" stroke="black" fill="black"/>
<text dominant-baseline="central" text-anchor="middle" font-family="monospace" font-size="30" x="4576" y="64" fill="white">M</text>
<text text-anchor="middle" font-family="monospace" font-size="8" x="4576" y="44">rec[17]</text>
<rect x="4560" y="112" width="32" height="32" stroke="black" fill="black"/>
<text dominant-baseline="central" text-anchor="middle" font-family="monospace" font-size="30" x="4576" y="128" fill="white">M</text>
<text text-anchor="middle" font-family="monospace" font-size="8" x="4576" y="108">rec[18]</text>
<rect x="4560" y="176" width="32" height="32" stroke="black" fill="black"/>
<text dominant-baseline="central" text-anchor="middle" font-family="monospace" font-size="30" x="4576" y="192" fill="white">M</text>
<text text-anchor="middle" font-family="monospace" font-size="8" x="4576" y="172">rec[19]</text>
<rect x="4560" y="240" width="32" height="32" stroke="black" fill="black"/>
<text dominant-baseline="central" text-anchor="middle" font-family="monospace" font-size="30" x="4576" y="256" fill="white">M</text>
<text text-anchor="middle" font-family="monospace" font-size="8" x="4576" y="236">rec[20]</text>
<rect x="4560" y="304" width="32" height="32" stroke="black" fill="black"/>
<text dominant-baseline="central" text-anchor="middle" font-family="monospace" font-size="30" x="4576" y="320" fill="white">M</text>
<text text-anchor="middle" font-family="monospace" font-size="8" x="4576" y="300">rec[21]</text>
<rect x="4560" y="368" width="32" height="32" stroke="black" fill="black"/>
<text dominant-baseline="central" text-anchor="middle" font-family="monospace" font-size="30" x="4576" y="384" fill="white">M</text>
<text text-anchor="middle" font-family="monospace" font-size="8" x="4576" y="364">rec[22]</text>
<rect x="4560" y="432" width="32" height="32" stroke="black" fill="black"/>
<text dominant-baseline="central" text-anchor="middle" font-family="monospace" font-size="30" x="4576" y="448" fill="white">M</text>
<text text-anchor="middle" font-family="monospace" font-size="8" x="4576" y="428">rec[23]</text>
<rect x="4560" y="496" width="32" height="32" stroke="black" fill="black"/>
<text dominant-baseline="central" text-anchor="middle" font-family="monospace" font-size="30" x="4576" y="512" fill="white">M</text>
<text text-anchor="middle" font-family="monospace" font-size="8" x="4576" y="492">rec[24]</text>
<rect x="4560" y="560" width="32" height="32" stroke="black" fill="black"/>
<text dominant-baseline="central" text-anchor="middle" font-family="monospace" font-size="30" x="4576" y="576" fill="white">M</text>
<text text-anchor="middle" font-family="monospace" font-size="8" x="4576" y="556">rec[25]</text>
<rect x="4816" y="688" width="416" height="32" stroke="black" fill="lightgray"/>
<text dominant-baseline="central" text-anchor="middle" font-family="monospace" font-size="16" x="5024" y="704">DETECTOR</text>
<text dominant-baseline="hanging" text-anchor="middle" font-family="monospace" font-size="8" x="5024" y="724">coords=(2,2,2)</text>
<text text-anchor="middle" font-family="monospace" font-size="8" x="5024" y="684">D13 = rec[18]*rec[17]*rec[21]*rec[20]*rec[10]</text>
<rect x="4816" y="816" width="288" height="32" stroke="black" fill="lightgray"/>
<text dominant-baseline="central" text-anchor="middle" font-family="monospace" font-size="16" x="4960" y="832">DETECTOR</text>
<text dominant-baseline="hanging" text-anchor="middle" font-family="monospace" font-size="8" x="4960" y="852">coords=(6,2,2)</text>
<text text-anchor="middle" font-family="monospace" font-size="8" x="4960" y="812">D14 = rec[19]*rec[22]*rec[12]</text>
<rect x="4816" y="880" width="288" height="32" stroke="black" fill="lightgray"/>
<text dominant-baseline="central" text-anchor="middle" font-family="monospace" font-size="16" x="4960" y="896">DETECTOR</text>
<text dominant-baseline="hanging" text-anchor="middle" font-family="monospace" font-size="8" x="4960" y="916">coords=(0,4,2)</text>
<text text-anchor="middle" font-family="monospace" font-size="8" x="4960" y="876">D15 = rec[20]*rec[23]*rec[13]</text>
<rect x="4816" y="1008" width="416" height="32" stroke="black" fill="lightgray"/>
<text dominant-baseline="central" text-anchor="middle" font-family="monospace" font-size="16" x="5024" y="1024">DETECTOR</text>
<text dominant-baseline="hanging" text-anchor="middle" font-family="monospace" font-size="8" x="5024" y="1044">coords=(4,4,2)</text>
<text text-anchor="middle" font-family="monospace" font-size="8" x="5024" y="1004">D16 = rec[22]*rec[21]*rec[25]*rec[24]*rec[15]</text>
<rect x="4816" y="48" width="288" height="32" stroke="black" fill="lightgray"/>
<text dominant-baseline="central" text-anchor="middle" font-family="monospace" font-size="16" x="4960" y="64">OBS_INCLUDE(0)</text>
<text text-anchor="middle" font-family="monospace" font-size="8" x="4960" y="44">L0 *= rec[17]*rec[18]*rec[19]</text>
<path d="M4484,40 L4484,32 L5244,32 L5244,40 " stroke="black" fill="none"/>
<path d="M4484,1144 L4484,1152 L5244,1152 L5244,1144 " stroke="black" fill="none"/>
</svg>